<?xml version="1.0" standalone="no"?>
<!DOCTYPE svg PUBLIC "-//W3C//DTD SVG 20010904//EN"
 "http://www.w3.org/TR/2001/REC-SVG-20010904/DTD/svg10.dtd">
<svg version="1.0" xmlns="http://www.w3.org/2000/svg"
 width="32.000000pt" height="32.000000pt" viewBox="0 0 32.000000 32.000000"
 preserveAspectRatio="xMidYMid meet">
<metadata>
Created by potrace 1.10, written by Peter Selinger 2001-2011
</metadata>
<g transform="translate(0.000000,32.000000) scale(0.100000,-0.100000)"
fill="#000000" stroke="none">
<path d="M150 224 c0 -16 -10 -34 -24 -45 -14 -11 -27 -33 -31 -49 -4 -17 -15
-36 -26 -43 -20 -15 -16 -29 6 -21 7 3 25 -7 39 -21 31 -31 69 -28 98 7 10 11
24 18 33 14 8 -3 15 -1 15 5 0 5 -7 12 -15 15 -8 4 -15 17 -15 29 0 13 -11 37
-25 53 -16 20 -23 36 -19 49 6 16 5 16 -9 -2 -15 -19 -15 -19 -10 8 3 16 1 27
-6 27 -6 0 -11 -12 -11 -26z m16 -71 c-7 -21 3 -37 27 -46 21 -8 23 -27 2 -27
-8 0 -15 -7 -15 -15 0 -8 -9 -15 -20 -15 -11 0 -20 5 -20 11 0 6 -7 17 -15 25
-18 18 -20 35 -4 31 6 -1 14 4 17 12 3 8 0 11 -7 7 -16 -10 -14 0 5 18 21 21
37 20 30 -1z"/>
</g>
</svg>
